<?xml version="1.0" encoding="utf-8"?>
<!-- Generator: Adobe Illustrator 25.2.3, SVG Export Plug-In . SVG Version: 6.00 Build 0)  -->
<svg version="1.1" id="Vrstva_1" xmlns="http://www.w3.org/2000/svg" xmlns:xlink="http://www.w3.org/1999/xlink" x="0px" y="0px"
	 viewBox="0 0 282.3 122.6" style="enable-background:new 0 0 282.3 122.6;" xml:space="preserve">
<style type="text/css">
	.st0{fill-rule:evenodd;clip-rule:evenodd;fill:#BA1B02;}
	.st1{fill:#FFFFFF;}
	.st2{fill-rule:evenodd;clip-rule:evenodd;fill:#FFFFFF;}
	.st3{fill-rule:evenodd;clip-rule:evenodd;fill:#DEDEDE;}
	.st4{fill-rule:evenodd;clip-rule:evenodd;fill:#B4B4B4;}
</style>
<rect class="st0" width="282.4" height="122.5"/>
<g>
	<polygon class="st1" points="129.1,35.2 130.6,38.5 113.8,60.9 130.1,60.9 130.1,65.5 108.4,65.5 107,62.3 123.9,40.2 108,40.2 
		108,35.2 	"/>
	<rect x="132.2" y="49.1" class="st1" width="17" height="4.8"/>
</g>
<g>
	<path class="st1" d="M109.8,76.9c0.7-0.4,1.5-0.6,2.3-0.6c1.8,0,3.6,1,3.6,3.1v3.5c0,2.1-1.8,3.1-3.6,3.1c-1.2,0-2.5-0.3-3.7-0.7
		V73.2h1.5L109.8,76.9L109.8,76.9z M109.8,84.5c0.7,0.2,1.5,0.3,2.2,0.3c1.1,0,2.1-0.7,2.1-1.8v-3.5c0-1.2-1-1.8-2.1-1.8
		c-0.7,0-1.5,0.1-2.2,0.5V84.5z"/>
	<path class="st1" d="M118.7,87.1c0.5,0.6,1.5,0.9,2.3,0.9c1.2,0,2.3-0.5,2.3-1.8v-0.7c-0.6,0.4-1.5,0.6-2.3,0.6
		c-1.9,0-3.7-1.1-3.7-3.2v-6.4h1.5v6.4c0,1.1,1.1,1.8,2.2,1.8c0.7,0,1.5-0.2,2.3-0.5v-7.8h1.5v9.8c0,2.2-1.8,3.2-3.7,3.2
		c-1.2,0-2.6-0.5-3.4-1.5L118.7,87.1z"/>
	<path class="st1" d="M130.6,73h4.9c2.9,0,4.4,2.1,4.4,4.1c0,2.1-1.5,4.1-4.3,4.1h-3.4v4.6h-1.5L130.6,73L130.6,73z M135.5,79.7
		c1.9,0,2.8-1.3,2.8-2.6c0-1.3-0.9-2.6-2.8-2.6h-3.4v5.2H135.5L135.5,79.7z"/>
	<path class="st1" d="M146.4,79.3c0-1.1-1.1-1.7-2.2-1.7c-0.8,0-1.8,0.3-2.3,1l-0.9-0.9c0.9-1,2.2-1.5,3.4-1.5c1.8,0,3.6,1,3.6,3
		v6.1c-1.3,0.5-2.6,0.7-3.9,0.6c-1.9,0-3.4-0.9-3.4-2.9c0-2.1,1.7-3,3.6-3c0.8,0,1.6,0.2,2.3,0.5v-1.2H146.4z M146.4,81.7
		c-0.6-0.2-1.3-0.4-2.1-0.4c-1.2,0-2.2,0.5-2.3,1.9c0,1.2,0.9,1.7,2,1.7c0.8,0,1.6,0,2.4-0.2V81.7z"/>
	<path class="st1" d="M155.4,78.8c-0.6-1-1.4-1.1-2.2-1.1c-1.1,0-2.2,0.5-2.2,1.7v3.5c0,1.1,1,1.7,2.2,1.7c0.9,0,1.9-0.4,2.3-1.5
		l1.2,0.5c-0.5,1.6-2.1,2.3-3.5,2.3c-1.8,0-3.6-1-3.6-3.1v-3.5c0-2.1,1.8-3.1,3.6-3.1c1.3,0,2.5,0.4,3.4,1.9L155.4,78.8z"/>
	<path class="st1" d="M163.8,76.5h1.9l-4.3,4.3l4.2,5.1h-1.8l-3.4-4.1l-1,1v3.1h-1.5V73.2h1.5v7.6L163.8,76.5z"/>
	<path class="st1" d="M167.4,83.1c0,1.1,1.1,1.7,2.2,1.7c0.9,0,1.8-0.4,2.1-1.3L173,84c-0.7,1.4-2.1,2.1-3.4,2.1
		c-1.8,0-3.7-1-3.7-3.1v-3.5c0-2.1,1.8-3.1,3.7-3.1c1.8,0,3.6,1,3.6,3.1V82h-5.8L167.4,83.1L167.4,83.1z M171.8,79.4
		c0-1.1-1.1-1.7-2.2-1.7c-1.2,0-2.2,0.6-2.2,1.8v1.3h4.4V79.4L171.8,79.4z"/>
	<path class="st1" d="M178.7,86.1c-0.2,0-0.4,0-0.6,0c-1.9,0-3.3-1.2-3.3-3.1v-8.9h1.4v2.4h1.9v1.3h-1.9V83c0,1.1,0.9,2.1,2.4,1.8
		L178.7,86.1L178.7,86.1z"/>
	<path class="st1" d="M185,79.3c0-1.1-1.1-1.7-2.2-1.7c-0.8,0-1.8,0.3-2.3,1l-0.9-0.9c0.9-1,2.2-1.5,3.4-1.5c1.8,0,3.6,1,3.6,3v6.1
		c-1.3,0.5-2.6,0.7-3.9,0.6c-1.9,0-3.4-0.9-3.4-2.9c0-2.1,1.7-3,3.6-3c0.8,0,1.6,0.2,2.3,0.5v-1.2H185z M185,81.7
		c-0.6-0.2-1.3-0.4-2.1-0.4c-1.2,0-2.2,0.5-2.3,1.9c0,1.2,0.9,1.7,2,1.7c0.8,0,1.6,0,2.4-0.2L185,81.7L185,81.7z"/>
	<path class="st1" d="M191.8,76.9c0-2.7,2.4-4,4.9-4c1.8,0,3.7,0.9,4.6,2.6l-1.4,0.6c-0.6-1.1-1.9-1.7-3.2-1.7
		c-1.7,0-3.3,0.8-3.3,2.5v5.2c0,1.7,1.7,2.5,3.4,2.5s3.4-0.8,3.4-2.5v-1.3h-3.8v-1.5h5.3v2.8c0,2.7-2.4,4.1-4.9,4.1
		s-4.9-1.3-4.9-4.1v-5.2H191.8z"/>
	<path class="st1" d="M207.5,77.7c-0.3-0.1-0.5-0.1-0.8-0.1c-1.1,0-2.1,0.6-2.1,1.8v6.5h-1.5v-6.5c0-2.1,1.9-3.1,3.5-3.1
		c0.3,0,0.6,0,0.8,0.1L207.5,77.7L207.5,77.7L207.5,77.7z"/>
	<path class="st1" d="M208.2,79.4c0-2.1,1.8-3.1,3.7-3.1c1.8,0,3.6,1.1,3.6,3.1v3.5c0,2.1-1.8,3.1-3.6,3.1s-3.7-1-3.7-3.1V79.4z
		 M209.7,79.4v3.5c0,1.2,1.1,1.7,2.2,1.7c1,0,2.2-0.6,2.2-1.7v-3.5c0-1.2-1.1-1.7-2.2-1.7C210.8,77.7,209.7,78.2,209.7,79.4z"/>
	<path class="st1" d="M224.5,85.4c-1.8,0.6-2.9,0.7-3.7,0.7c-1.8,0-3.6-1.1-3.6-3.1v-6.5h1.5V83c0,1.1,1.1,1.7,2.1,1.7
		c0.8,0,1.6-0.1,2.2-0.3v-7.9h1.5V85.4z"/>
	<path class="st1" d="M226.5,77c1.2-0.4,2.5-0.7,3.7-0.7c1.8,0,3.6,1,3.6,3.1v3.5c0,2.1-1.8,3.2-3.7,3.1c-0.8,0-1.5-0.1-2.2-0.5v3.6
		h-1.5L226.5,77L226.5,77z M227.9,84.3c0.7,0.3,1.5,0.4,2.2,0.4c1.1,0,2.2-0.6,2.2-1.7v-3.5c0-1.1-1.1-1.7-2.1-1.7
		c-0.7,0-1.5,0-2.2,0.2L227.9,84.3L227.9,84.3z"/>
</g>
<g>
	<g>
		<path class="st2" d="M60.2,54.7l-1.7,0.8L57,54.8L35.7,44.1l10.1-3.9l22,10.7L60.2,54.7z M81.5,44.1l-7.7,3.7l-22.2-9.9l6.9-2.7
			L81.5,44.1z M31.8,70.4l0.7,1.3L57.2,94l0.8-5L36,69l-3-25.7l-4.7-1.7L31.8,70.4z M84.2,43.4l-3,25.9l-22,19.6l0.8,5.2l24.7-22.3
			l0.7-1.3l3.5-28.9L84.2,43.4z M57.9,28.3L29.6,39.2l4,3.2l24.8-9.7l25,9.7l3.9-3.2L59.4,28.3H57.9z"/>
		<path class="st3" d="M57.3,57.7l1.2,28.2L38.4,67.8l-2.9-23.4L57.3,57.7z"/>
		<path class="st4" d="M74.5,48.8l7.1-4.4l-2.9,23.3l-20,18.1l1.2-28l8.7-5.4l-0.5,13.8l5.5-4L74.5,48.8z"/>
	</g>
</g>
<g>
	<path class="st1" d="M165.6,40.2v25.3h-5V40.2h-9.2v-5h23.3v5H165.6z"/>
	<path class="st1" d="M184,47.9h13.8v5H184v7.7h15v5h-20V35.2h20v5h-15V47.9z"/>
	<path class="st1" d="M203.4,44.5c0-6.5,5.8-9.8,11.7-9.8c4.4,0,9,2.3,11.2,6.9l-4.4,2.2c-1.5-2.7-4.2-4.1-6.9-4.1
		c-3.3,0-6.7,1.6-6.7,4.8v11.6c0,3.2,3.3,4.8,6.7,4.8c2.7,0,5.5-1.4,6.9-4.1l4.4,2.1c-2.2,4.7-6.8,7-11.3,7
		c-5.8,0-11.6-3.2-11.6-9.8L203.4,44.5L203.4,44.5z"/>
	<path class="st1" d="M235.6,65.5h-5V35.2h5v12.7h13.5V35.2h5v30.3h-5V52.8h-13.5V65.5z"/>
</g>
</svg>
